HIERARCHY
ROOT Hips
{
  OFFSET 5.72205e-005 65.662 3.42586
  CHANNELS 6 Xposition Yposition Zposition Zrotation Xrotation Yrotation
  JOINT Chest
  {
    OFFSET 0 8.7983 -4.7612
    CHANNELS 3 Zrotation Xrotation Yrotation
    JOINT Chest2
    {
      OFFSET 0 8.0291 0.4195
      CHANNELS 3 Zrotation Xrotation Yrotation
      JOINT Chest3
      {
        OFFSET 0 9.9351 -2.2114
        CHANNELS 3 Zrotation Xrotation Yrotation
        JOINT Neck
        {
          OFFSET 0 22.3885 -0.4656
          CHANNELS 3 Zrotation Xrotation Yrotation
          JOINT Head
          {
            OFFSET -0.0001 12.643 3.4389
            CHANNELS 3 Zrotation Xrotation Yrotation
            End Site
            {
              OFFSET 0.0001 17.6655 0.5274
            }
          }
        }
        JOINT LeftCollar
        {
          OFFSET 2.2603 21.606 7.4023
          CHANNELS 3 Zrotation Xrotation Yrotation
          JOINT LeftShoulder
          {
            OFFSET 13.5163 -1.1332 -5.0146
            CHANNELS 3 Zrotation Xrotation Yrotation
            JOINT LeftElbow
            {
              OFFSET -0.0995 -28.05 -0.2431
              CHANNELS 3 Zrotation Xrotation Yrotation
              JOINT LeftWrist
              {
                OFFSET 0.0679 -23.3996 -0.1402
                CHANNELS 3 Zrotation Xrotation Yrotation
                JOINT LeftFinger1
                {
                  OFFSET 0.7932 -9.069 2.5189
                  CHANNELS 3 Zrotation Xrotation Yrotation
                  JOINT LeftFinger11
                  {
                    OFFSET -0.8272 -3.3923 0.5977
                    CHANNELS 3 Zrotation Xrotation Yrotation
                    JOINT LeftFinger12
                    {
                      OFFSET -0.5649 -2.3158 0.4082
                      CHANNELS 3 Zrotation Xrotation Yrotation
                      End Site
                      {
                        OFFSET -0.4919 -1.6479 0.2673
                      }
                    }
                  }
                }
                JOINT LeftFinger2
                {
                  OFFSET 0.9159 -9.2044 0.2193
                  CHANNELS 3 Zrotation Xrotation Yrotation
                  JOINT LeftFinger21
                  {
                    OFFSET 0.0117 -4.1944 -0.0248
                    CHANNELS 3 Zrotation Xrotation Yrotation
                    JOINT LeftFinger22
                    {
                      OFFSET 0.0071 -2.3249 -0.0142
                      CHANNELS 3 Zrotation Xrotation Yrotation
                      End Site
                      {
                        OFFSET -0.1475 -2.0882 0.0028
                      }
                    }
                  }
                }
                JOINT LeftFinger3
                {
                  OFFSET 0.6113 -8.7231 -2.0637
                  CHANNELS 3 Zrotation Xrotation Yrotation
                  JOINT LeftFinger31
                  {
                    OFFSET -0.1927 -3.8059 -0.2383
                    CHANNELS 3 Zrotation Xrotation Yrotation
                    JOINT LeftFinger32
                    {
                      OFFSET -0.1091 -2.1688 -0.1362
                      CHANNELS 3 Zrotation Xrotation Yrotation
                      End Site
                      {
                        OFFSET -0.2358 -1.9176 -0.0906
                      }
                    }
                  }
                }
                JOINT LeftFinger4
                {
                  OFFSET -0.6151 -8.0947 -3.5641
                  CHANNELS 3 Zrotation Xrotation Yrotation
                  JOINT LeftFinger41
                  {
                    OFFSET -0.4882 -2.341 -0.6462
                    CHANNELS 3 Zrotation Xrotation Yrotation
                    JOINT LeftFinger42
                    {
                      OFFSET -0.3575 -1.7167 -0.4742
                      CHANNELS 3 Zrotation Xrotation Yrotation
                      End Site
                      {
                        OFFSET -0.4187 -1.5237 -0.3496
                      }
                    }
                  }
                }
                JOINT LeftFinger0
                {
                  OFFSET -1.42 -1.8761 1.4223
                  CHANNELS 3 Zrotation Xrotation Yrotation
                  JOINT LeftFinger01
                  {
                    OFFSET -1.1471 -3.4929 2.6334
                    CHANNELS 3 Zrotation Xrotation Yrotation
                    JOINT LeftFinger02
                    {
                      OFFSET -0.823 -2.3 1.6571
                      CHANNELS 3 Zrotation Xrotation Yrotation
                      End Site
                      {
                        OFFSET -0.5822 -1.6914 1.1582
                      }
                    }
                  }
                }
              }
            }
          }
        }
        JOINT RightCollar
        {
          OFFSET -2.2603 21.606 7.4023
          CHANNELS 3 Zrotation Xrotation Yrotation
          JOINT RightShoulder
          {
            OFFSET -13.5187 -1.1334 -5.0155
            CHANNELS 3 Zrotation Xrotation Yrotation
            JOINT RightElbow
            {
              OFFSET 0.0994 -28.0499 -0.2431
              CHANNELS 3 Zrotation Xrotation Yrotation
              JOINT RightWrist
              {
                OFFSET -0.0679 -23.3996 -0.1402
                CHANNELS 3 Zrotation Xrotation Yrotation
                JOINT RightFinger1
                {
                  OFFSET -0.7932 -9.0691 2.5189
                  CHANNELS 3 Zrotation Xrotation Yrotation
                  JOINT RightFinger11
                  {
                    OFFSET 0.8272 -3.3923 0.5977
                    CHANNELS 3 Zrotation Xrotation Yrotation
                    JOINT RightFinger12
                    {
                      OFFSET 0.565 -2.3158 0.4082
                      CHANNELS 3 Zrotation Xrotation Yrotation
                      End Site
                      {
                        OFFSET 0.4919 -1.6479 0.2673
                      }
                    }
                  }
                }
                JOINT RightFinger2
                {
                  OFFSET -0.916 -9.2044 0.2193
                  CHANNELS 3 Zrotation Xrotation Yrotation
                  JOINT RightFinger21
                  {
                    OFFSET -0.0117 -4.1944 -0.0248
                    CHANNELS 3 Zrotation Xrotation Yrotation
                    JOINT RightFinger22
                    {
                      OFFSET -0.0071 -2.3249 -0.0142
                      CHANNELS 3 Zrotation Xrotation Yrotation
                      End Site
                      {
                        OFFSET 0.1475 -2.0882 0.0028
                      }
                    }
                  }
                }
                JOINT RightFinger3
                {
                  OFFSET -0.6113 -8.7231 -2.0637
                  CHANNELS 3 Zrotation Xrotation Yrotation
                  JOINT RightFinger31
                  {
                    OFFSET 0.1927 -3.8059 -0.2383
                    CHANNELS 3 Zrotation Xrotation Yrotation
                    JOINT RightFinger32
                    {
                      OFFSET 0.1091 -2.1688 -0.1362
                      CHANNELS 3 Zrotation Xrotation Yrotation
                      End Site
                      {
                        OFFSET 0.2358 -1.9176 -0.0906
                      }
                    }
                  }
                }
                JOINT RightFinger4
                {
                  OFFSET 0.6151 -8.0947 -3.564
                  CHANNELS 3 Zrotation Xrotation Yrotation
                  JOINT RightFinger41
                  {
                    OFFSET 0.4882 -2.341 -0.6462
                    CHANNELS 3 Zrotation Xrotation Yrotation
                    JOINT RightFinger42
                    {
                      OFFSET 0.3574 -1.7166 -0.4742
                      CHANNELS 3 Zrotation Xrotation Yrotation
                      End Site
                      {
                        OFFSET 0.4187 -1.5237 -0.3496
                      }
                    }
                  }
                }
                JOINT RightFinger0
                {
                  OFFSET 1.4199 -1.8761 1.4221
                  CHANNELS 3 Zrotation Xrotation Yrotation
                  JOINT RightFinger01
                  {
                    OFFSET 1.1472 -3.4929 2.6336
                    CHANNELS 3 Zrotation Xrotation Yrotation
                    JOINT RightFinger02
                    {
                      OFFSET 0.8229 -2.3 1.6571
                      CHANNELS 3 Zrotation Xrotation Yrotation
                      End Site
                      {
                        OFFSET 0.5822 -1.6914 1.1582
                      }
                    }
                  }
                }
              }
            }
          }
        }
      }
    }
  }
  JOINT RightHip
  {
    OFFSET -9.412 3.9771 -0.7758
    CHANNELS 3 Zrotation Xrotation Yrotation
    JOINT RightKnee
    {
      OFFSET -0.7531 -40.938 0
      CHANNELS 3 Zrotation Xrotation Yrotation
      JOINT RightAnkle
      {
        OFFSET 0 -40.1986 0
        CHANNELS 3 Zrotation Xrotation Yrotation
        JOINT RightToe
        {
          OFFSET 0 -4.4182 9.239
          CHANNELS 3 Zrotation Xrotation Yrotation
          End Site
          {
            OFFSET 0 0 6.1981
          }
        }
      }
    }
  }
  JOINT LeftHip
  {
    OFFSET 9.4119 3.9773 -0.7758
    CHANNELS 3 Zrotation Xrotation Yrotation
    JOINT LeftKnee
    {
      OFFSET 0.7532 -40.9383 0
      CHANNELS 3 Zrotation Xrotation Yrotation
      JOINT LeftAnkle
      {
        OFFSET 0 -40.1986 0
        CHANNELS 3 Zrotation Xrotation Yrotation
        JOINT LeftToe
        {
          OFFSET 0 -4.4182 9.239
          CHANNELS 3 Zrotation Xrotation Yrotation
          End Site
          {
            OFFSET 0 0 6.1981
          }
        }
      }
    }
  }
}
MOTION
Frames:	6
Frame Time:	0.0333333
5.72205e-005 65.662 3.42586 0 0 -0 0 0 -0 0 0 -0 0 0 -0 0 0 -0 0 0 -0 0 0 -12.5014 88.1196 14.2451 10.6914 -0.00160068 -0.00239207 0.000740045 -8.4365e-005 7.00714e-005 -9.52055e-007 9.93923e-017 -1.98785e-016 -1.59028e-015 9.93923e-017 -5.96354e-016 -1.59028e-015 -9.93923e-017 -5.96354e-016 -1.59028e-015 9.93923e-017 -1.98785e-016 -1.59028e-015 -0.0128176 0.00232552 8.52707e-005 9.93923e-017 5.96354e-016 -0 9.93923e-017 -1.98785e-016 -1.59028e-015 -0.0160551 0.00299681 0.000857156 -2.48481e-016 0 3.18055e-015 9.93923e-017 -1.98785e-016 -1.59028e-015 -0.0125865 0.0031206 0.00282719 0 1.98785e-016 -0 9.93923e-017 -1.98785e-016 -1.59028e-015 9.93923e-017 -5.96354e-016 -1.59028e-015 -9.93923e-017 -5.96354e-016 -1.59028e-015 -0.865644 0.16582 7.03859 -88.0329 10.2057 -10.5567 0.0015593 -0.00248883 -0.000788628 7.87605e-005 4.10553e-005 1.24965e-005 -3.97569e-016 -7.95139e-016 3.18055e-015 -1.98785e-016 -3.97569e-016 3.18055e-015 -1.98785e-016 0 3.18055e-015 -3.97569e-016 -7.95139e-016 3.18055e-015 0.0129473 0.00231697 -8.70038e-005 9.93923e-017 -7.95139e-016 1.59028e-015 -3.97569e-016 -7.95139e-016 3.18055e-015 0.0163314 0.00303369 -0.000872333 3.97569e-016 7.95139e-016 -3.18055e-015 -3.97569e-016 -7.95139e-016 3.18055e-015 0.0145763 0.00367772 -0.00326275 9.93923e-017 -3.97569e-016 -0 -3.97569e-016 -7.95139e-016 3.18055e-015 -1.98785e-016 -3.97569e-016 3.18055e-015 -1.98785e-016 0 3.18055e-015 3.42482 1.32465 -0.0626183 0.000117508 0.717283 0.000978199 -3.4257 -2.04197 -0.0604716 6.47761e-025 0 -0 -3.42483 1.34017 0.0627307 -0.000193936 0.682302 -0.0013703 3.42574 -2.02253 0.0595886 -8.45714e-024 0 -7.40531e-025 
-7.05714 22.7972 2.39181 0.0515982 24.0028 -178.25 -1.6499 1.26157 -1.27559 -3.27252 2.55906 -2.51525 -3.27252 2.55905 -2.51525 1.48871e-005 -1.01611e-005 1.06992e-005 -2.42517e-014 -3.18055e-015 8.74653e-015 -25.6393 -7.43891 -16.4516 85.9577 -14.2826 33.1742 -80.9157 -47.4755 -45.5639 -46.9846 34.3792 33.548 -2.53713e-006 -1.34356e-006 2.70788e-007 -3.18055e-015 5.56597e-015 -6.36111e-015 5.83108e-006 1.79454e-006 -9.73673e-007 -2.53713e-006 -1.34356e-006 2.70788e-007 -0.0128406 0.00233439 9.28859e-005 -6.45128e-006 -8.33306e-006 -1.35564e-005 -2.53713e-006 -1.34356e-006 2.70788e-007 -0.0160629 0.00300795 0.000859442 7.37908e-007 7.16855e-007 -1.50228e-006 -2.53713e-006 -1.34356e-006 2.70788e-007 -0.0125651 0.00311848 0.00282177 5.04728e-006 1.09039e-005 5.51641e-006 -2.53713e-006 -1.34356e-006 2.70788e-007 -3.18055e-015 5.56597e-015 -6.36111e-015 5.83108e-006 1.79454e-006 -9.73673e-007 16.3962 -8.05285 7.81608 -86.0229 -35.6766 -30.3838 89.4056 -55.4482 59.2345 24.4267 1.63743 -34.1632 7.41867e-006 -1.60051e-007 6.65677e-006 -6.36111e-015 -3.18055e-015 -0 2.13566e-008 -8.41446e-006 2.76834e-006 7.41867e-006 -1.60051e-007 6.65677e-006 0.0128819 0.00230138 -7.6125e-005 3.18055e-015 -3.18055e-015 -0 7.41867e-006 -1.60051e-007 6.65677e-006 0.0163385 0.00303712 -0.000874747 6.36111e-015 -3.53454e-006 9.54166e-015 7.41867e-006 -1.60051e-007 6.65677e-006 0.0147028 0.00370537 -0.00329082 2.22639e-014 3.02983e-007 1.59028e-014 7.41867e-006 -1.60051e-007 6.65677e-006 -6.36111e-015 -3.18055e-015 -0 2.13566e-008 -8.41446e-006 2.76834e-006 -15.1321 26.654 7.34307 160.25 79.9818 -117.702 2.00823 41.4879 -40.8898 3.0882e-006 -3.02559e-006 1.5105e-006 114.685 -48.3521 82.8713 176.064 62.0476 137.578 14.6072 13.7613 25.5914 1.39189e-006 -5.40515e-006 4.31803e-006 
-7.06064 22.7304 2.39898 0.053468 25.0541 -178.246 -1.619 1.79189 -1.28522 -3.19976 3.61895 -2.52114 -3.19976 3.61895 -2.52114 -0.201204 -0.115404 -0.152281 2.90797e-006 -0.308038 8.89622e-007 -24.865 -8.51026 -17.6134 85.9577 -14.2826 33.1742 -78.218 -47.3224 -43.5078 -47.0598 32.9968 33.0009 -1.59028e-014 -7.95139e-016 7.95139e-016 -1.44115e-006 9.17769e-006 -3.05537e-006 -1.04873e-005 -6.45771e-006 -5.33571e-006 -1.59028e-014 -7.95139e-016 7.95139e-016 -0.0127967 0.00232789 7.1812e-005 3.90788e-006 8.73137e-006 7.78958e-006 -1.59028e-014 -7.95139e-016 7.95139e-016 -0.0160714 0.00300251 0.000844614 -5.09121e-006 6.83604e-006 -5.46979e-007 -1.59028e-014 -7.95139e-016 7.95139e-016 -0.0126079 0.00313909 0.00282022 -1.44137e-006 -1.11286e-006 -3.05536e-006 -1.59028e-014 -7.95139e-016 7.95139e-016 -1.44115e-006 9.17769e-006 -3.05537e-006 -1.04873e-005 -6.45771e-006 -5.33571e-006 15.8243 -9.6789 8.62183 -86.023 -35.6767 -30.3838 88.1206 -55.4892 58.1501 24.4017 1.22103 -34.4182 2.27311e-006 5.79369e-006 -1.49956e-006 6.36111e-015 -3.18055e-015 -3.18055e-015 0 0 -3.18055e-015 2.27311e-006 5.79369e-006 -1.49956e-006 0.0129041 0.00230295 -7.72144e-005 -3.18055e-015 -3.18055e-015 -6.36111e-015 2.27311e-006 5.79369e-006 -1.49956e-006 0.0162853 0.00302597 -0.000870257 7.39878e-006 -4.91206e-007 6.682e-006 2.27311e-006 5.79369e-006 -1.49956e-006 0.0146005 0.00368076 -0.00326439 -9.54166e-015 -3.18055e-015 -0 2.27311e-006 5.79369e-006 -1.49956e-006 6.36111e-015 -3.18055e-015 -3.18055e-015 0 0 -3.18055e-015 -15.3589 27.5605 7.6318 160.843 79.7698 -118.296 2.00564 41.4795 -40.8878 0 3.18055e-015 -0 114.153 -48.0768 82.3376 176.118 61.7364 137.578 13.6595 16.0531 26.0238 5.67036e-006 2.64075e-006 -2.30107e-006 
-7.06417 22.6654 2.40802 0.0552951 26.1069 -178.243 -1.58714 2.32693 -1.29481 -3.12513 4.68832 -2.52775 -3.12513 4.68832 -2.52775 -0.402791 -0.230317 -0.30502 -8.15886e-007 -0.616247 2.24455e-007 -24.1078 -9.60084 -18.768 85.9577 -14.2826 33.1742 -75.5283 -47.1032 -41.4634 -47.1497 31.6111 32.4585 1.27222e-014 -4.77083e-015 3.18055e-015 3.18055e-015 7.95139e-016 2.38542e-015 3.61536e-006 5.40079e-006 4.61741e-006 1.27222e-014 -4.77083e-015 3.18055e-015 -0.0128513 0.00233691 9.39345e-005 -1.43352e-006 -1.34497e-006 -3.05784e-006 1.27222e-014 -4.77083e-015 3.18055e-015 -0.016006 0.00299709 0.000862532 -3.18055e-015 2.38542e-015 3.97569e-015 1.27222e-014 -4.77083e-015 3.18055e-015 -0.0126287 0.00314114 0.00284903 -1.49803e-006 -3.16743e-006 2.99628e-006 1.27222e-014 -4.77083e-015 3.18055e-015 3.18055e-015 7.95139e-016 2.38542e-015 3.61536e-006 5.40079e-006 4.61741e-006 15.2703 -11.3204 9.41896 -86.0229 -35.6766 -30.3838 86.8326 -55.5163 57.063 24.3747 0.804644 -34.6736 -9.54166e-015 -3.18055e-015 -3.18055e-015 2.2714e-006 5.23314e-006 -4.26176e-006 -3.18055e-015 0 -0 -9.54166e-015 -3.18055e-015 -3.18055e-015 0.0129432 0.00230761 -9.11112e-005 -3.18055e-015 -6.36111e-015 -0 -9.54166e-015 -3.18055e-015 -3.18055e-015 0.016353 0.00303522 -0.000879029 1.27222e-014 -6.36111e-015 -3.18055e-015 -9.54166e-015 -3.18055e-015 -3.18055e-015 0.0146538 0.00370278 -0.0032872 -9.54166e-015 -3.18055e-015 3.18055e-015 -9.54166e-015 -3.18055e-015 -3.18055e-015 2.2714e-006 5.23314e-006 -4.26176e-006 -3.18055e-015 0 -0 -15.593 28.4668 7.92742 161.413 79.5565 -118.866 2.0028 41.4709 -40.8858 2.64834e-031 3.18055e-015 -4.77083e-015 113.647 -47.8038 81.8277 176.173 61.4149 137.583 12.6704 18.358 26.5089 2.22639e-014 -1.90833e-014 6.36111e-015 
-7.06772 22.6022 2.41897 0.0570674 27.1609 -178.239 -1.55434 2.86624 -1.30437 -3.04864 5.76616 -2.53512 -3.04865 5.76616 -2.53512 -0.604699 -0.344843 -0.458176 -1.23081e-006 -0.924605 3.04e-007 -23.3683 -10.7098 -19.9154 85.9577 -14.2826 33.1742 -72.8547 -46.8182 -39.4385 -47.2537 30.2229 31.9202 3.18055e-015 3.97569e-015 4.77083e-015 -1.18419e-005 -3.47686e-006 -7.42145e-006 -9.54166e-015 -7.15625e-015 -7.95139e-016 3.18055e-015 3.97569e-015 4.77083e-015 -0.0128041 0.0023284 8.53596e-005 -6.36111e-015 -1.66979e-014 -5.56597e-015 3.18055e-015 3.97569e-015 4.77083e-015 -0.0160181 0.00299155 0.000850217 5.46424e-006 9.5063e-007 -1.6775e-007 3.18055e-015 3.97569e-015 4.77083e-015 -0.0125983 0.00312448 0.00282413 -1.18678e-005 4.73177e-006 -8.47384e-006 3.18055e-015 3.97569e-015 4.77083e-015 -1.18419e-005 -3.47686e-006 -7.42145e-006 -9.54166e-015 -7.15625e-015 -7.95139e-016 14.7342 -12.9761 10.208 -86.0229 -35.6766 -30.3838 85.5426 -55.5297 55.9738 24.3458 0.388263 -34.9291 9.90228e-006 -9.51842e-007 8.06152e-006 1.59028e-014 6.09376e-007 -3.18055e-015 -0 0 6.36111e-015 9.90228e-006 -9.51842e-007 8.06152e-006 0.013 0.00232479 -8.18707e-005 -2.53945e-006 -2.10519e-007 -4.10572e-006 9.90228e-006 -9.51842e-007 8.06152e-006 0.0164094 0.00304748 -0.000872662 6.36111e-015 0 -6.36111e-015 9.90228e-006 -9.51842e-007 8.06152e-006 0.0146736 0.00369771 -0.00327869 -2.28408e-006 8.80976e-006 1.48348e-006 9.90228e-006 -9.51842e-007 8.06152e-006 1.59028e-014 6.09376e-007 -3.18055e-015 -0 0 6.36111e-015 -15.8347 29.3731 8.23023 161.959 79.3425 -119.412 2.00001 41.4625 -40.8837 -2.1197e-006 -4.79754e-006 4.03783e-006 113.166 -47.534 81.3419 176.228 61.084 137.593 11.6351 20.673 27.0511 -1.34636e-006 -4.41525e-006 2.56636e-006 
-7.07131 22.5408 2.43189 0.0587789 28.216 -178.236 -1.52058 3.40917 -1.31386 -2.97027 6.85127 -2.54328 -2.97027 6.85129 -2.54329 -0.807049 -0.458779 -0.611836 3.05548e-007 -1.2331 -4.32522e-007 -22.6468 -11.8359 -21.0555 85.9577 -14.2826 33.1742 -70.2048 -46.4683 -37.4408 -47.3715 28.8326 31.3852 6.36111e-015 0 3.18055e-015 6.09535e-006 2.16336e-006 3.35776e-006 -1.79887e-006 9.66014e-006 -2.31532e-006 6.36111e-015 0 3.18055e-015 -0.0128139 0.00232621 8.49612e-005 4.6346e-031 -1.11319e-014 2.38542e-015 6.36111e-015 0 3.18055e-015 -0.0160931 0.0030046 0.00085841 3.28593e-006 1.95615e-006 -1.72007e-006 6.36111e-015 0 3.18055e-015 -0.0125785 0.00311038 0.0028187 9.54166e-015 9.54166e-015 3.18055e-015 6.36111e-015 0 3.18055e-015 6.09535e-006 2.16336e-006 3.35776e-006 -1.79887e-006 9.66014e-006 -2.31532e-006 14.216 -14.6447 10.9894 -86.0229 -35.6766 -30.3838 84.2515 -55.5292 54.8836 24.3152 -0.0280963 -35.1849 -9.54166e-015 -1.27222e-014 3.18055e-015 -1.27222e-014 -1.27222e-014 6.36111e-015 -1.59028e-014 -1.27222e-014 3.18055e-015 -9.54166e-015 -1.27222e-014 3.18055e-015 0.0129411 0.00231533 -8.34768e-005 -1.27222e-014 -3.18055e-015 6.36111e-015 -9.54166e-015 -1.27222e-014 3.18055e-015 0.0164393 0.00305216 -0.000876402 6.36111e-015 -9.54166e-015 3.18055e-015 -9.54166e-015 -1.27222e-014 3.18055e-015 0.014587 0.00367876 -0.00326246 -6.36111e-015 3.18055e-015 -0 -9.54166e-015 -1.27222e-014 3.18055e-015 -1.27222e-014 -1.27222e-014 6.36111e-015 -1.59028e-014 -1.27222e-014 3.18055e-015 -16.0843 30.2791 8.54051 162.484 79.1273 -119.937 1.99701 41.4538 -40.8816 -8.47746e-007 1.95692e-007 -3.52806e-006 112.71 -47.2678 80.8799 176.283 60.7449 137.607 10.548 22.9946 27.6551 3.18055e-015 -3.18055e-015 -9.54166e-015 
